<svg xmlns="http://www.w3.org/2000/svg" viewBox="0 0 64 64" role="img" aria-label="Challenger tier">
  <defs>
    <linearGradient id="challenger-g" x1="10" y1="8" x2="54" y2="58" gradientUnits="userSpaceOnUse">
      <stop stop-color="#f5d0fe"/>
      <stop offset=".45" stop-color="#a855f7"/>
      <stop offset="1" stop-color="#4c1d95"/>
    </linearGradient>
  </defs>
  <path d="M32 3 58 17v30L32 61 6 47V17L32 3Z" fill="#160027"/>
  <path d="M32 7 53 19v26L32 57 11 45V19L32 7Z" fill="url(#challenger-g)" stroke="#faf5ff" stroke-width="2"/>
  <path d="M32 13 49 31 32 51 15 31 32 13Z" fill="#faf5ff" opacity=".3"/>
  <path d="m32 15 6 12 13 2-10 9 3 13-12-7-12 7 3-13-10-9 13-2 6-12Z" fill="#fff7ff"/>
  <circle cx="32" cy="32" r="7" fill="#7e22ce"/>
</svg>
