<svg xmlns="http://www.w3.org/2000/svg" viewBox="0 0 64 64" role="img" aria-label="Vibranium tier">
  <defs>
    <linearGradient id="vibranium-g" x1="10" y1="8" x2="54" y2="58" gradientUnits="userSpaceOnUse">
      <stop stop-color="#fecdd3"/>
      <stop offset=".45" stop-color="#ef4444"/>
      <stop offset="1" stop-color="#7f1d1d"/>
    </linearGradient>
    <filter id="vibranium-glow" x="-20%" y="-20%" width="140%" height="140%">
      <feGaussianBlur stdDeviation="2.2" result="blur"/>
      <feMerge>
        <feMergeNode in="blur"/>
        <feMergeNode in="SourceGraphic"/>
      </feMerge>
    </filter>
  </defs>
  <path d="M32 4 56 17v30L32 60 8 47V17L32 4Z" fill="#1f0303"/>
  <path d="M32 8 52 19v26L32 56 12 45V19L32 8Z" fill="url(#vibranium-g)" stroke="#fee2e2" stroke-width="2"/>
  <path d="M32 12 48 22v20L32 52 16 42V22l16-10Z" fill="#fee2e2" opacity=".18"/>
  <path d="M32 16 45 29 32 48 19 29 32 16Z" fill="#fff1f2" filter="url(#vibranium-glow)"/>
  <path d="M32 16v32M19 29h26" stroke="#b91c1c" stroke-width="2" opacity=".45"/>
</svg>
